<svg xmlns="http://www.w3.org/2000/svg" width="40" height="40" viewBox="0 0 40 40">
  <path fill="#C8C8CD" fill-rule="evenodd" d="M6,18 L18,18 L18,6.0006189 C18,4.89570759 18.8957076,4 20.0006189,4 L20.0006189,4 C21.1054325,4 22.0010609,4.8956284 22.0010609,6.00044203 C22.0010609,6.00050098 22.0010609,6.00055994 22.0010609,6.00061889 L22,18 L34,18 C35.1045695,18 36,18.8954305 36,20 L36,20 C36,21.1045695 35.1045695,22 34,22 L22,22 L22,34 C22,35.1045695 21.1045695,36 20,36 L20,36 C18.8954305,36 18,35.1045695 18,34 L18,22 L6,22 C4.8954305,22 4,21.1045695 4,20 L4,20 C4,18.8954305 4.8954305,18 6,18 Z" transform="rotate(45 20 20)"/>
</svg>
